# xmcd CD database file
#
# Track frame offsets:
#	150
#	14663
#	31757
#	48704
#	68894
#	85685
#	105102
#	120872
#	138422
#	153914
#	170656
#	202410
#	219347
#	234299
#
# Disc length: 3401 seconds
#
# Revision: 0
# Processed by: cddbd v1.5.2PL0 Copyright (c) Steve Scherf et al.
# Submitted via: CDex 1.51
#
DISCID=b40d470e
DTITLE=jimmy buffett - Take The Weather With You
DYEAR=2006
DGENRE=Country
TTITLE0=Bama Breeze
TTITLE1=Party At The End Of The World
TTITLE2=Weather With You
TTITLE3=Everybody's On The Phone
TTITLE4=Whoop De Doo
TTITLE5=Nothin' But A Breeze
TTITLE6=Cinco De Mayo In Memphis
TTITLE7=Reggabilly Hill
TTITLE8=Elvis Presley Blues
TTITLE9=Hula Girl At Heart
TTITLE10=Wheel Inside The Wheel
TTITLE11=Silver Wings
TTITLE12=Breathe In, Breathe Out, Move On
TTITLE13=Duke's On Sunday
EXTD=YEAR: 2006
EXTT0=
EXTT1=
EXTT2=
EXTT3=
EXTT4=
EXTT5=
EXTT6=
EXTT7=
EXTT8=
EXTT9=
EXTT10=
EXTT11=
EXTT12=
EXTT13=
PLAYORDER=
